<mxfile host="app.diagrams.net" modified="2023-11-09T23:49:04.898Z" agent="Mozilla/5.0 (Macintosh; Intel Mac OS X 10_15_7) AppleWebKit/605.1.15 (KHTML, like Gecko) Version/17.0 Safari/605.1.15" etag="9Tj-rsfx4t9PIPqgdc0l" version="22.1.0" type="google">
  <diagram name="Pagina-1" id="g9bXBNuBf6WTCcqQKKs8">
    <mxGraphModel grid="1" page="1" gridSize="10" guides="1" tooltips="1" connect="1" arrows="1" fold="1" pageScale="1" pageWidth="827" pageHeight="1169" math="0" shadow="0">
      <root>
        <mxCell id="0" />
        <mxCell id="1" parent="0" />
        <mxCell id="epupeP6VROtLo_IqOHv0-24" style="edgeStyle=orthogonalEdgeStyle;rounded=0;orthogonalLoop=1;jettySize=auto;html=1;exitX=0.5;exitY=1;exitDx=0;exitDy=0;entryX=0.5;entryY=0;entryDx=0;entryDy=0;" edge="1" parent="1" source="epupeP6VROtLo_IqOHv0-11" target="epupeP6VROtLo_IqOHv0-12">
          <mxGeometry relative="1" as="geometry" />
        </mxCell>
        <mxCell id="epupeP6VROtLo_IqOHv0-11" value="CUTSCENE STARTS" style="rounded=1;whiteSpace=wrap;html=1;fillColor=#f8cecc;strokeColor=#b85450;" vertex="1" parent="1">
          <mxGeometry x="320" y="200" width="130" height="60" as="geometry" />
        </mxCell>
        <mxCell id="epupeP6VROtLo_IqOHv0-26" style="edgeStyle=orthogonalEdgeStyle;rounded=0;orthogonalLoop=1;jettySize=auto;html=1;exitX=0.5;exitY=1;exitDx=0;exitDy=0;entryX=0.5;entryY=0;entryDx=0;entryDy=0;" edge="1" parent="1" source="epupeP6VROtLo_IqOHv0-12" target="epupeP6VROtLo_IqOHv0-13">
          <mxGeometry relative="1" as="geometry" />
        </mxCell>
        <mxCell id="epupeP6VROtLo_IqOHv0-12" value="The first part of the cutscene plays" style="rounded=0;whiteSpace=wrap;html=1;fillColor=#dae8fc;strokeColor=#6c8ebf;" vertex="1" parent="1">
          <mxGeometry x="325" y="330" width="120" height="60" as="geometry" />
        </mxCell>
        <mxCell id="epupeP6VROtLo_IqOHv0-27" style="edgeStyle=orthogonalEdgeStyle;rounded=0;orthogonalLoop=1;jettySize=auto;html=1;exitX=0;exitY=0.5;exitDx=0;exitDy=0;entryX=1;entryY=0.5;entryDx=0;entryDy=0;" edge="1" parent="1" source="epupeP6VROtLo_IqOHv0-13" target="epupeP6VROtLo_IqOHv0-15">
          <mxGeometry relative="1" as="geometry" />
        </mxCell>
        <mxCell id="epupeP6VROtLo_IqOHv0-28" value="No" style="edgeLabel;html=1;align=center;verticalAlign=middle;resizable=0;points=[];" connectable="0" vertex="1" parent="epupeP6VROtLo_IqOHv0-27">
          <mxGeometry x="-0.0548" y="3" relative="1" as="geometry">
            <mxPoint y="-3" as="offset" />
          </mxGeometry>
        </mxCell>
        <mxCell id="epupeP6VROtLo_IqOHv0-30" style="edgeStyle=orthogonalEdgeStyle;rounded=0;orthogonalLoop=1;jettySize=auto;html=1;exitX=0.5;exitY=1;exitDx=0;exitDy=0;entryX=0.5;entryY=0;entryDx=0;entryDy=0;" edge="1" parent="1" source="epupeP6VROtLo_IqOHv0-13" target="epupeP6VROtLo_IqOHv0-25">
          <mxGeometry relative="1" as="geometry" />
        </mxCell>
        <mxCell id="epupeP6VROtLo_IqOHv0-31" value="Yes" style="edgeLabel;html=1;align=center;verticalAlign=middle;resizable=0;points=[];" connectable="0" vertex="1" parent="epupeP6VROtLo_IqOHv0-30">
          <mxGeometry x="-0.0649" y="1" relative="1" as="geometry">
            <mxPoint as="offset" />
          </mxGeometry>
        </mxCell>
        <mxCell id="epupeP6VROtLo_IqOHv0-13" value="Does the player click on the Skip Button?" style="rhombus;whiteSpace=wrap;html=1;fillColor=#ffe6cc;strokeColor=#d79b00;" vertex="1" parent="1">
          <mxGeometry x="317.5" y="440" width="135" height="100" as="geometry" />
        </mxCell>
        <mxCell id="epupeP6VROtLo_IqOHv0-15" value="Idle" style="rounded=1;whiteSpace=wrap;html=1;fillColor=#f8cecc;strokeColor=#b85450;" vertex="1" parent="1">
          <mxGeometry x="110" y="460" width="120" height="60" as="geometry" />
        </mxCell>
        <mxCell id="epupeP6VROtLo_IqOHv0-40" style="edgeStyle=orthogonalEdgeStyle;rounded=0;orthogonalLoop=1;jettySize=auto;html=1;exitX=0.5;exitY=0;exitDx=0;exitDy=0;entryX=1;entryY=0.5;entryDx=0;entryDy=0;" edge="1" parent="1" source="epupeP6VROtLo_IqOHv0-19" target="epupeP6VROtLo_IqOHv0-13">
          <mxGeometry relative="1" as="geometry" />
        </mxCell>
        <mxCell id="epupeP6VROtLo_IqOHv0-19" value="The next part of the cutscene plays" style="rounded=0;whiteSpace=wrap;html=1;fillColor=#dae8fc;strokeColor=#6c8ebf;" vertex="1" parent="1">
          <mxGeometry x="510" y="540" width="120" height="60" as="geometry" />
        </mxCell>
        <mxCell id="epupeP6VROtLo_IqOHv0-23" value="MainMenu" style="rounded=1;whiteSpace=wrap;html=1;fillColor=#f5f5f5;fontColor=#333333;strokeColor=#666666;" vertex="1" parent="1">
          <mxGeometry x="325" y="790" width="120" height="60" as="geometry" />
        </mxCell>
        <mxCell id="epupeP6VROtLo_IqOHv0-35" style="edgeStyle=orthogonalEdgeStyle;rounded=0;orthogonalLoop=1;jettySize=auto;html=1;exitX=0.5;exitY=1;exitDx=0;exitDy=0;entryX=0.5;entryY=0;entryDx=0;entryDy=0;" edge="1" parent="1" source="epupeP6VROtLo_IqOHv0-25" target="epupeP6VROtLo_IqOHv0-23">
          <mxGeometry relative="1" as="geometry" />
        </mxCell>
        <mxCell id="epupeP6VROtLo_IqOHv0-36" value="Yes" style="edgeLabel;html=1;align=center;verticalAlign=middle;resizable=0;points=[];" connectable="0" vertex="1" parent="epupeP6VROtLo_IqOHv0-35">
          <mxGeometry x="-0.1168" y="-2" relative="1" as="geometry">
            <mxPoint as="offset" />
          </mxGeometry>
        </mxCell>
        <mxCell id="epupeP6VROtLo_IqOHv0-38" style="edgeStyle=orthogonalEdgeStyle;rounded=0;orthogonalLoop=1;jettySize=auto;html=1;exitX=1;exitY=0.5;exitDx=0;exitDy=0;entryX=0.5;entryY=1;entryDx=0;entryDy=0;" edge="1" parent="1" source="epupeP6VROtLo_IqOHv0-25" target="epupeP6VROtLo_IqOHv0-19">
          <mxGeometry relative="1" as="geometry" />
        </mxCell>
        <mxCell id="epupeP6VROtLo_IqOHv0-39" value="No" style="edgeLabel;html=1;align=center;verticalAlign=middle;resizable=0;points=[];" connectable="0" vertex="1" parent="epupeP6VROtLo_IqOHv0-38">
          <mxGeometry x="-0.5134" y="2" relative="1" as="geometry">
            <mxPoint as="offset" />
          </mxGeometry>
        </mxCell>
        <mxCell id="epupeP6VROtLo_IqOHv0-25" value="Is it the last part of the cutscene?" style="rhombus;whiteSpace=wrap;html=1;fillColor=#ffe6cc;strokeColor=#d79b00;" vertex="1" parent="1">
          <mxGeometry x="335" y="610" width="100" height="80" as="geometry" />
        </mxCell>
      </root>
    </mxGraphModel>
  </diagram>
</mxfile>
